<svg width="120" height="120" viewBox="0 0 120 120" fill="none" xmlns="http://www.w3.org/2000/svg">
  <defs>
    <!-- Professional gradient definition -->
    <linearGradient id="logoGradient" x1="0%" y1="0%" x2="100%" y2="100%">
      <stop offset="0%" style="stop-color:#0EA5E9;stop-opacity:1" />
      <stop offset="50%" style="stop-color:#3B82F6;stop-opacity:1" />
      <stop offset="100%" style="stop-color:#1E40AF;stop-opacity:1" />
    </linearGradient>
    
    <!-- Shadow filter -->
    <filter id="shadow" x="-20%" y="-20%" width="140%" height="140%">
      <feDropShadow dx="0" dy="4" stdDeviation="8" flood-opacity="0.15"/>
    </filter>
    
    <!-- Glow effect -->
    <filter id="glow" x="-50%" y="-50%" width="200%" height="200%">
      <feGaussianBlur stdDeviation="3" result="coloredBlur"/>
      <feMerge> 
        <feMergeNode in="coloredBlur"/>
        <feMergeNode in="SourceGraphic"/>
      </feMerge>
    </filter>
  </defs>
  
  <!-- Background circle with subtle gradient -->
  <circle cx="60" cy="60" r="58" fill="url(#logoGradient)" filter="url(#shadow)" opacity="0.95"/>
  
  <!-- Inner circle for depth -->
  <circle cx="60" cy="60" r="52" fill="none" stroke="rgba(255,255,255,0.2)" stroke-width="1"/>
  
  <!-- Letter R -->
  <g filter="url(#glow)">
    <path d="M25 35 L25 85 L35 85 L35 62 L48 62 L58 85 L70 85 L58 60 Q58 50 48 45 Q38 40 25 40 Z M35 45 L47 45 Q50 45 52 47 Q54 49 54 52 Q54 55 52 57 Q50 59 47 59 L35 59 Z" 
          fill="white" 
          stroke="rgba(255,255,255,0.3)" 
          stroke-width="0.5"/>
  </g>
  
  <!-- Letter F -->
  <g filter="url(#glow)">
    <path d="M75 35 L75 85 L85 85 L85 62 L100 62 L100 52 L85 52 L85 45 L105 45 L105 35 Z" 
          fill="white" 
          stroke="rgba(255,255,255,0.3)" 
          stroke-width="0.5"/>
  </g>
  
  <!-- Decorative elements -->
  <circle cx="60" cy="60" r="46" fill="none" stroke="rgba(255,255,255,0.1)" stroke-width="0.5"/>
  <circle cx="60" cy="60" r="40" fill="none" stroke="rgba(255,255,255,0.05)" stroke-width="0.5"/>
</svg>