<svg width="120" height="120" viewBox="0 0 120 120" fill="none" xmlns="http://www.w3.org/2000/svg">
  <defs>
    <!-- Professional gradient definition -->
    <linearGradient id="logoGradientArabic" x1="0%" y1="0%" x2="100%" y2="100%">
      <stop offset="0%" style="stop-color:#0EA5E9;stop-opacity:1" />
      <stop offset="50%" style="stop-color:#3B82F6;stop-opacity:1" />
      <stop offset="100%" style="stop-color:#1E40AF;stop-opacity:1" />
    </linearGradient>
    
    <!-- Shadow filter -->
    <filter id="shadowArabic" x="-20%" y="-20%" width="140%" height="140%">
      <feDropShadow dx="0" dy="4" stdDeviation="8" flood-opacity="0.15"/>
    </filter>
    
    <!-- Glow effect -->
    <filter id="glowArabic" x="-50%" y="-50%" width="200%" height="200%">
      <feGaussianBlur stdDeviation="3" result="coloredBlur"/>
      <feMerge> 
        <feMergeNode in="coloredBlur"/>
        <feMergeNode in="SourceGraphic"/>
      </feMerge>
    </filter>
  </defs>
  
  <!-- Background circle with subtle gradient -->
  <circle cx="60" cy="60" r="58" fill="url(#logoGradientArabic)" filter="url(#shadowArabic)" opacity="0.95"/>
  
  <!-- Inner circle for depth -->
  <circle cx="60" cy="60" r="52" fill="none" stroke="rgba(255,255,255,0.2)" stroke-width="1"/>
  
  <!-- Arabic Letters: ر (Ra) and ف (Fa) -->
  <g filter="url(#glowArabic)">
    <!-- Letter ر (Ra) on the right -->
    <path d="M75 45 Q75 40 70 35 Q65 30 60 30 Q55 30 50 35 Q45 40 45 45 Q45 50 50 55 Q55 60 60 60 Q65 60 70 55 Q75 50 75 45 M50 45 Q50 42 53 40 Q56 38 60 38 Q64 38 67 40 Q70 42 70 45 Q70 48 67 50 Q64 52 60 52 Q56 52 53 50 Q50 48 50 45 M60 60 L60 85" 
          fill="white" 
          stroke="rgba(255,255,255,0.3)" 
          stroke-width="0.5"/>
  </g>
  
  <g filter="url(#glowArabic)">
    <!-- Letter ف (Fa) on the left with dot -->
    <path d="M25 50 Q25 45 30 40 Q35 35 40 35 Q45 35 50 40 Q55 45 55 50 L55 85 L45 85 L45 50 Q45 48 43 46 Q41 44 40 44 Q39 44 37 46 Q35 48 35 50 L35 85 L25 85 Z" 
          fill="white" 
          stroke="rgba(255,255,255,0.3)" 
          stroke-width="0.5"/>
    <!-- Dot for ف -->
    <circle cx="40" cy="30" r="2.5" fill="white"/>
  </g>
  
  <!-- Dot separator -->
  <circle cx="60" cy="70" r="2" fill="rgba(255,255,255,0.8)"/>
  
  <!-- Decorative elements -->
  <circle cx="60" cy="60" r="46" fill="none" stroke="rgba(255,255,255,0.1)" stroke-width="0.5"/>
  <circle cx="60" cy="60" r="40" fill="none" stroke="rgba(255,255,255,0.05)" stroke-width="0.5"/>
</svg>