<svg width="80" height="80" viewBox="0 0 80 80" fill="none" xmlns="http://www.w3.org/2000/svg">
  <defs>
    <!-- Professional gradient definition -->
    <linearGradient id="logoGradientArabicSmall" x1="0%" y1="0%" x2="100%" y2="100%">
      <stop offset="0%" style="stop-color:#0EA5E9;stop-opacity:1" />
      <stop offset="50%" style="stop-color:#3B82F6;stop-opacity:1" />
      <stop offset="100%" style="stop-color:#1E40AF;stop-opacity:1" />
    </linearGradient>
    
    <!-- Shadow filter -->
    <filter id="shadowArabicSmall" x="-20%" y="-20%" width="140%" height="140%">
      <feDropShadow dx="0" dy="2" stdDeviation="4" flood-opacity="0.15"/>
    </filter>
    
    <!-- Glow effect -->
    <filter id="glowArabicSmall" x="-50%" y="-50%" width="200%" height="200%">
      <feGaussianBlur stdDeviation="2" result="coloredBlur"/>
      <feMerge> 
        <feMergeNode in="coloredBlur"/>
        <feMergeNode in="SourceGraphic"/>
      </feMerge>
    </filter>
  </defs>
  
  <!-- Background circle with subtle gradient -->
  <circle cx="40" cy="40" r="38" fill="url(#logoGradientArabicSmall)" filter="url(#shadowArabicSmall)" opacity="0.95"/>
  
  <!-- Inner circle for depth -->
  <circle cx="40" cy="40" r="34" fill="none" stroke="rgba(255,255,255,0.2)" stroke-width="0.5"/>
  
  <!-- Arabic Letters: ر (Ra) and ف (Fa) - scaled down -->
  <g filter="url(#glowArabicSmall)">
    <!-- Letter ر (Ra) on the right -->
    <path d="M50 30 Q50 27 47 24 Q44 21 40 21 Q36 21 33 24 Q30 27 30 30 Q30 33 33 36 Q36 39 40 39 Q44 39 47 36 Q50 33 50 30 M33 30 Q33 28 35 27 Q37 26 40 26 Q43 26 45 27 Q47 28 47 30 Q47 32 45 33 Q43 34 40 34 Q37 34 35 33 Q33 32 33 30 M40 39 L40 57" 
          fill="white" 
          stroke="rgba(255,255,255,0.3)" 
          stroke-width="0.3"/>
  </g>
  
  <g filter="url(#glowArabicSmall)">
    <!-- Letter ف (Fa) on the left with dot -->
    <path d="M17 33 Q17 30 20 27 Q23 24 27 24 Q30 24 33 27 Q37 30 37 33 L37 57 L30 57 L30 33 Q30 32 29 31 Q28 30 27 30 Q26 30 25 31 Q24 32 24 33 L24 57 L17 57 Z" 
          fill="white" 
          stroke="rgba(255,255,255,0.3)" 
          stroke-width="0.3"/>
    <!-- Dot for ف -->
    <circle cx="27" cy="20" r="1.5" fill="white"/>
  </g>
  
  <!-- Dot separator -->
  <circle cx="40" cy="47" r="1.5" fill="rgba(255,255,255,0.8)"/>
  
  <!-- Decorative elements -->
  <circle cx="40" cy="40" r="30" fill="none" stroke="rgba(255,255,255,0.1)" stroke-width="0.3"/>
  <circle cx="40" cy="40" r="26" fill="none" stroke="rgba(255,255,255,0.05)" stroke-width="0.3"/>
</svg>