<svg width="80" height="80" viewBox="0 0 80 80" fill="none" xmlns="http://www.w3.org/2000/svg">
  <defs>
    <!-- Professional gradient definition -->
    <linearGradient id="logoGradientSmall" x1="0%" y1="0%" x2="100%" y2="100%">
      <stop offset="0%" style="stop-color:#0EA5E9;stop-opacity:1" />
      <stop offset="50%" style="stop-color:#3B82F6;stop-opacity:1" />
      <stop offset="100%" style="stop-color:#1E40AF;stop-opacity:1" />
    </linearGradient>
    
    <!-- Shadow filter -->
    <filter id="shadowSmall" x="-20%" y="-20%" width="140%" height="140%">
      <feDropShadow dx="0" dy="2" stdDeviation="4" flood-opacity="0.15"/>
    </filter>
    
    <!-- Glow effect -->
    <filter id="glowSmall" x="-50%" y="-50%" width="200%" height="200%">
      <feGaussianBlur stdDeviation="2" result="coloredBlur"/>
      <feMerge> 
        <feMergeNode in="coloredBlur"/>
        <feMergeNode in="SourceGraphic"/>
      </feMerge>
    </filter>
  </defs>
  
  <!-- Background circle with subtle gradient -->
  <circle cx="40" cy="40" r="38" fill="url(#logoGradientSmall)" filter="url(#shadowSmall)" opacity="0.95"/>
  
  <!-- Inner circle for depth -->
  <circle cx="40" cy="40" r="34" fill="none" stroke="rgba(255,255,255,0.2)" stroke-width="0.5"/>
  
  <!-- Letter R (scaled down) -->
  <g filter="url(#glowSmall)">
    <path d="M17 23 L17 57 L23 57 L23 42 L32 42 L39 57 L47 57 L39 40 Q39 33 32 30 Q25 27 17 30 Z M23 30 L31 30 Q33 30 35 31 Q36 33 36 35 Q36 37 35 38 Q33 39 31 39 L23 39 Z" 
          fill="white" 
          stroke="rgba(255,255,255,0.3)" 
          stroke-width="0.3"/>
  </g>
  
  <!-- Letter F (scaled down) -->
  <g filter="url(#glowSmall)">
    <path d="M50 23 L50 57 L57 57 L57 42 L67 42 L67 35 L57 35 L57 30 L70 30 L70 23 Z" 
          fill="white" 
          stroke="rgba(255,255,255,0.3)" 
          stroke-width="0.3"/>
  </g>
  
  <!-- Decorative elements -->
  <circle cx="40" cy="40" r="30" fill="none" stroke="rgba(255,255,255,0.1)" stroke-width="0.3"/>
  <circle cx="40" cy="40" r="26" fill="none" stroke="rgba(255,255,255,0.05)" stroke-width="0.3"/>
</svg>